# xmcd
#
# Track frame offsets:
#	150
#	16440
#	31609
#	49226
#	62595
#	80075
#	94521
#	116445
#	133065
#	147687
#	166773
#	182959
#	200622
#	217468
#	234380
#
# Disc length: 3314
#
# Revision: 1
# Processed by: cddbd v1.5.2PL0 Copyright (c) Steve Scherf et al.
# Submitted via: kJams Pro (development) 1.0patch45.33
#
DISCID=da0cf00f
DTITLE=Various Artist - sc8986
DYEAR=2007
DGENRE=Country
TTITLE0=Faith Hill - Sunshine and Summertime
TTITLE1=Cowboy Crush - Hillbilly Nation
TTITLE2=Bob Seger - Wait for me
TTITLE3=Jack Ingram - Love You
TTITLE4=Toby Keith - Note to Self
TTITLE5=Julie Roberts - Girl Next Door
TTITLE6=Rascal Flatts - Life Is a Highway
TTITLE7=Big and Rich - 8th of November
TTITLE8=Darryl Worley - Nothin' But a Love Thang
TTITLE9=Blaine Larsen and Gretchen Wilson - Lips of a Bottle
TTITLE10=Jason Aldean - Amarillo Sky
TTITLE11=Rio Grand - Kill Me Now
TTITLE12=The Lost Trailers - Call Me Crazy
TTITLE13=Heartland - I Loved Her First
TTITLE14=Carolina Rain - Get Outta My Way
EXTD=MediaType: Karaoke CD+G Producer: Sound Choice
EXTT0=
EXTT1=
EXTT2=
EXTT3=
EXTT4=
EXTT5=
EXTT6=
EXTT7=
EXTT8=
EXTT9=
EXTT10=
EXTT11=
EXTT12=
EXTT13=
EXTT14=
PLAYORDER=
